<svg width="137" height="137" viewBox="0 0 137 137" fill="none" xmlns="http://www.w3.org/2000/svg">
<mask id="path-1-inside-1_336_9993" fill="white">
<path fill-rule="evenodd" clip-rule="evenodd" d="M68.5 137C106.332 137 137 106.332 137 68.5C137 30.6685 106.332 0 68.5 0C30.6685 0 0 30.6685 0 68.5C0 106.332 30.6685 137 68.5 137ZM68.5 125.583C100.026 125.583 125.583 100.026 125.583 68.4998C125.583 36.9736 100.026 11.4165 68.5 11.4165C36.9737 11.4165 11.4167 36.9736 11.4167 68.4998C11.4167 100.026 36.9737 125.583 68.5 125.583Z"/>
</mask>
<path d="M121 68.5C121 97.4949 97.4949 121 68.5 121V153C115.168 153 153 115.168 153 68.5H121ZM68.5 16C97.4949 16 121 39.5051 121 68.5H153C153 21.8319 115.168 -16 68.5 -16V16ZM16 68.5C16 39.5051 39.5051 16 68.5 16V-16C21.8319 -16 -16 21.8319 -16 68.5H16ZM68.5 121C39.5051 121 16 97.4949 16 68.5H-16C-16 115.168 21.8319 153 68.5 153V121ZM109.583 68.4998C109.583 91.1895 91.1897 109.583 68.5 109.583V141.583C108.863 141.583 141.583 108.863 141.583 68.4998H109.583ZM68.5 27.4165C91.1897 27.4165 109.583 45.8101 109.583 68.4998H141.583C141.583 28.137 108.863 -4.5835 68.5 -4.5835V27.4165ZM27.4167 68.4998C27.4167 45.8101 45.8103 27.4165 68.5 27.4165V-4.5835C28.1372 -4.5835 -4.58333 28.137 -4.58333 68.4998H27.4167ZM68.5 109.583C45.8103 109.583 27.4167 91.1895 27.4167 68.4998H-4.58333C-4.58333 108.863 28.1372 141.583 68.5 141.583V109.583Z" fill="url(#paint0_angular_336_9993)" mask="url(#path-1-inside-1_336_9993)"/>
<defs>
<radialGradient id="paint0_angular_336_9993" cx="0" cy="0" r="1" gradientUnits="userSpaceOnUse" gradientTransform="translate(68.5 68.5) scale(68.5)">
<stop stop-color="white"/>
<stop offset="0.0001" stop-color="white" stop-opacity="0"/>
<stop offset="0.510417" stop-color="#F7C2D2"/>
<stop offset="0.666667" stop-color="#BB4981"/>
<stop offset="0.911458" stop-color="#185AA1"/>
<stop offset="1" stop-color="#1F478B"/>
</radialGradient>
</defs>
</svg>
